<svg xmlns="http://www.w3.org/2000/svg" xmlns:xlink="http://www.w3.org/1999/xlink" width="275" height="62" viewBox="0 0 275 62"><circle fill="#DE5833" cx="57.381" cy="31" r="26.05"/><ellipse fill="none" stroke="#DE5833" stroke-width="2.25" stroke-miterlimit="10" cx="57.377" cy="31" rx="29.25" ry="29.208"/><g fill="#4C4C4C"><path d="M105.81 21.05h-6.552l-.142.025v18.268h6.692c6.346 0 9.185-4.69 9.185-9.34 0-4.312-2.873-8.953-9.184-8.953zm0 2.444c4.603 0 6.665 3.256 6.665 6.485 0 3.157-1.745 6.842-6.666 6.842h-4.175V23.494h4.174zM127.088 33.32c0 2.287-1.583 3.968-3.763 3.988-2.323 0-3.71-1.428-3.71-3.812v-7.13h-2.39v7.157c0 3.662 2.224 6.022 5.664 6.022 1.778-.022 3.22-.694 4.295-1.985l.09 1.778h2.205v-12.97h-2.39l-.002 6.952zM143.46 37.38l-1.49-1.49-.103.105c-.81.836-1.95 1.29-3.21 1.29-2.18 0-4.38-1.366-4.38-4.43 0-2.61 1.81-4.434 4.405-4.434 1.164 0 2.297.453 3.11 1.246l.103.098 1.533-1.59-.103-.1c-1.312-1.288-2.894-1.942-4.697-1.942-4.052 0-6.77 2.7-6.77 6.723 0 4.64 3.4 6.717 6.77 6.717 1.88 0 3.504-.67 4.828-1.993l.103-.102-.1-.097zM155.725 26.698v-.33H152.9l-5.01 5.138v-10.43h-2.37v18.27h2.37V33.56l5.782 5.786h2.77v-.358l-6.516-6.49zM165.03 21.05h-6.55l-.146.025v18.268h6.688c6.35 0 9.188-4.69 9.188-9.34.007-4.312-2.868-8.953-9.18-8.953zm0 2.444c4.603 0 6.667 3.256 6.667 6.485 0 3.157-1.745 6.842-6.668 6.842h-4.173V23.494h4.172zM186.31 33.32c0 2.287-1.583 3.968-3.767 3.988-2.32 0-3.71-1.428-3.71-3.812v-7.13h-2.39v7.157c0 3.662 2.226 6.022 5.664 6.022h.002c1.775-.022 3.218-.694 4.292-1.985l.093 1.778h2.205v-12.97h-2.392v6.952zM202.682 37.38l-1.49-1.49-.1.105c-.812.836-1.95 1.29-3.21 1.29-2.182 0-4.383-1.366-4.383-4.43 0-2.61 1.81-4.434 4.402-4.434 1.164 0 2.298.453 3.113 1.246l.103.098 1.532-1.59-.104-.1c-1.312-1.288-2.892-1.942-4.696-1.942-4.052 0-6.77 2.7-6.77 6.723 0 4.64 3.402 6.717 6.77 6.717 1.88 0 3.504-.67 4.828-1.993l.104-.102-.1-.097zM214.945 26.698v-.33h-2.823l-5.013 5.138v-10.43h-2.366v18.27h2.365V33.56l5.785 5.786h2.77v-.358l-6.52-6.49zM224.703 31.482h5.598v4.057c-1.348 1.142-2.993 1.746-4.763 1.746-4.87 0-7.05-3.478-7.05-6.922 0-3.508 2.19-7.282 7-7.282 1.897 0 3.896.792 5.218 2.065l.107.106 1.47-1.706-.093-.092c-1.794-1.767-4.173-2.74-6.704-2.74-2.76 0-5.123.908-6.83 2.623-1.73 1.74-2.678 4.235-2.662 7.025 0 4.297 2.492 9.313 9.518 9.313 2.8 0 5.113-1.015 7.066-3.104l.037-.04V29.22h-7.912v2.262zM241.254 26.084c-3.893 0-6.72 2.86-6.72 6.797 0 3.88 2.827 6.693 6.72 6.693 3.906 0 6.744-2.814 6.744-6.692 0-4.002-2.775-6.796-6.744-6.796zm0 11.225c-2.508 0-4.328-1.856-4.328-4.43 0-2.698 1.79-4.582 4.354-4.582 2.522 0 4.354 1.927 4.354 4.582-.03 2.61-1.83 4.43-4.38 4.43z"/></g><defs><path id="a" d="M83.663 30.928c0 14.494-11.79 26.283-26.285 26.283-14.492 0-26.28-11.79-26.28-26.282 0-14.49 11.79-26.28 26.28-26.28 14.495 0 26.285 11.79 26.285 26.28z"/></defs><clipPath id="b"><use xlink:href="#a" overflow="visible"/></clipPath><g clip-path="url(#b)"><path fill="#D5D7D8" d="M68.054 69.8c-.917-4.22-6.244-13.77-8.265-17.808-2.02-4.037-4.043-9.73-3.123-13.402.167-.668-1.75-5.76-1.198-6.12 4.284-2.794 5.414.308 7.13-.946.884-.646 2.082.53 2.39-.54 1.097-3.855-1.532-10.572-4.466-13.51-.96-.956-2.43-1.557-4.09-1.876-.637-.872-1.667-1.712-3.124-2.484-1.624-.864-5.154-2.005-6.984-2.31-1.27-.208-1.555.147-2.098.235.505.044 2.902 1.228 3.37 1.298-.467.315-1.837-.015-2.712.377-.44.2-.77.957-.767 1.314 2.5-.254 6.4-.01 8.707 1.017-1.834.21-4.624.442-5.823 1.072-3.487 1.837-5.027 6.128-4.11 11.27.92 5.13 4.96 23.855 6.246 30.108 1.286 6.246-2.754 10.28-5.324 11.383l2.754.187-.917 2.02c3.302.37 6.974-.73 6.974-.73-.733 2.022-5.692 2.757-5.692 2.757s2.39.73 6.243-.736c3.857-1.467 6.244-2.39 6.244-2.39l1.835 4.772 3.49-3.486 1.47 3.672c0-.003 2.755-.925 1.837-5.145z"/><path fill="#fff" d="M69.163 68.943c-.915-4.22-6.24-13.77-8.263-17.812-2.02-4.04-4.04-9.73-3.122-13.4.17-.667.174-3.395.728-3.757 4.283-2.8 3.98-.096 5.696-1.35.886-.646 1.595-1.43 1.904-2.5 1.103-3.856-1.53-10.572-4.468-13.51-.956-.958-2.427-1.56-4.086-1.876-.637-.875-1.665-1.712-3.123-2.485-2.746-1.458-6.15-2.04-9.302-1.47.504.047 1.658 1.09 2.123 1.158-.702.477-2.57.416-2.56 1.475 2.503-.25 5.247.145 7.554 1.17-1.834.208-3.542.66-4.74 1.294-3.492 1.833-4.41 5.505-3.492 10.65.92 5.14 4.96 23.867 6.242 30.11 1.287 6.24-2.75 10.278-5.32 11.382l2.753.186-.917 2.02c3.302.364 6.974-.732 6.974-.732-.732 2.02-5.69 2.754-5.69 2.754s2.385.733 6.24-.735c3.86-1.468 6.25-2.386 6.25-2.386l1.832 4.77 3.49-3.488 1.472 3.673c-.007 0 2.745-.92 1.825-5.142z"/><path fill="#2D4F8E" d="M48.055 26.788c0-1.065.86-1.93 1.93-1.93 1.064 0 1.927.863 1.927 1.93 0 1.066-.863 1.928-1.927 1.928-1.068 0-1.93-.862-1.93-1.928z"/><path fill="#fff" d="M50.34 26.144c0-.277.225-.5.5-.5.276 0 .5.224.5.5s-.224.5-.5.5c-.275.002-.5-.222-.5-.5z"/><path fill="#2D4F8E" d="M61.217 25.644c0-.913.744-1.655 1.656-1.655.917 0 1.657.74 1.657 1.654 0 .917-.74 1.66-1.657 1.66-.912 0-1.656-.743-1.656-1.66z"/><path fill="#fff" d="M63.18 25.093c0-.235.194-.43.428-.43.243 0 .43.194.43.43 0 .24-.188.43-.43.43-.234-.002-.427-.192-.427-.43z"/><linearGradient id="c" gradientUnits="userSpaceOnUse" x1="1628.171" y1="-2962.842" x2="1632.533" y2="-2962.842" gradientTransform="matrix(1 0 0 -1 -1582 -2941)"><stop offset=".006" stop-color="#6176B9"/><stop offset=".691" stop-color="#394A9F"/></linearGradient><path fill="url(#c)" d="M50.533 21.2s-1.454-.657-2.867.23c-1.41.887-1.358 1.794-1.358 1.794s-.75-1.672 1.25-2.49c2-.82 2.975.466 2.975.466z"/><linearGradient id="d" gradientUnits="userSpaceOnUse" x1="1641.895" y1="-2961.513" x2="1645.87" y2="-2961.513" gradientTransform="matrix(1 0 0 -1 -1582 -2941)"><stop offset=".006" stop-color="#6176B9"/><stop offset=".691" stop-color="#394A9F"/></linearGradient><path fill="url(#d)" d="M63.87 21.067s-1.043-.597-1.855-.587c-1.664.02-2.12.758-2.12.758s.28-1.754 2.41-1.403c1.156.193 1.565 1.232 1.565 1.232z"/></g><path fill="#FDD20A" d="M55.887 34.225c.193-1.166 3.208-3.374 5.342-3.508 2.138-.134 2.805-.104 4.587-.53 1.787-.43 6.383-1.573 7.656-2.16 1.275-.59 6.672.29 2.868 2.412-1.646.92-6.082 2.61-9.252 3.56-3.167.945-5.087-.907-6.14.65-.838 1.233-.17 2.933 3.614 3.285 5.11.476 10.01-2.304 10.55-.828.542 1.476-4.393 3.312-7.398 3.373-3 .057-9.05-1.98-9.957-2.615-.91-.633-2.122-2.104-1.87-3.64z"/><path fill="#65BC46" d="M58.2 50.16s-7.18-3.828-7.298-2.275c-.12 1.557 0 7.898.837 8.377.837.48 6.82-3.11 6.82-3.11l-.36-2.99zM60.95 49.92s4.907-3.71 5.986-3.47c1.075.243 1.315 7.897.356 8.26-.957.356-6.572-1.942-6.572-1.942l.23-2.847z"/><path fill="#43A244" d="M56.462 50.566c0 2.51-.36 3.59.718 3.828 1.075.236 3.108 0 3.828-.48.717-.477.118-3.707-.12-4.31-.24-.594-4.426-.114-4.426.962z"/><path fill="#65BC46" d="M56.918 50.01c0 2.51-.36 3.588.718 3.827 1.073.24 3.108 0 3.828-.478.717-.48.12-3.706-.122-4.313-.24-.594-4.424-.113-4.424.962z"/></svg>